:SAMPLES-PER-SECOND 30
:FULLY-SPECIFIED
:DEGREES
609
root  -45.8759 38.2814 10.8855 -3.0601 31.9356 5.54057
RightUpLeg  12.1339 -10.2675 -19.867
RightLeg  47.3101 2.55836 2.58809
RightFoot  5.03915 -1.17618 8.45064
RightToes  5.82063e-011 0 -3.6325e-017
Spine  11.041 1.02118 1.77513
Spine1  6.69287 2.96686 -10.1956
HEad  -23.8287 10.2503 -10.8743
LeftShoulder1  0.521888 2.02295 -29.1454
LeftArm  -6.41134 9.93732 -41.6106
LeftForeArm  25.4511 -6.40197 -7.35538
LeftHand  -0.00541749 1.88906 -0.137981
RightShoulder  -0.25117 -4.25118 26.1879
RightArm  19.2091 -0.260727 49.6813
RightForeArm  16.1942 7.84803 9.15335
RightHand  -0.0952114 1.5306 -1.7567
LeftUpLeg  -15.1451 19.6308 -12.0245
LeftLeg  27.051 4.70291 2.96507
LeftFoot  -8.30861 -0.254615 11.457
LeftToes  1.81573e-012 2.54609e-010 -3.45981e-011
610
root  -45.1204 38.3219 11.5013 -2.58743 36.6718 5.79486
RightUpLeg  7.24161 -7.05769 -17.3192
RightLeg  55.2769 6.08114 8.70189
RightFoot  3.24991 -1.32139 10.4448
RightToes  5.82063e-011 0 -3.6325e-017
Spine  11.341 0.964332 -0.46629
Spine1  6.85589 1.84525 -7.88308
HEad  -22.3122 9.1332 -10.8925
LeftShoulder1  0.540604 2.00899 -30.1042
LeftArm  -4.08309 8.56037 -42.0797
LeftForeArm  25.4181 -8.65366 -8.25539
LeftHand  -0.0306559 2.13611 0.69
RightShoulder  -0.236546 -4.21384 25.8513
RightArm  17.1101 0.257917 49.702
RightForeArm  20.8235 5.92503 8.82905
RightHand  -0.11571 0.912598 -2.2331
LeftUpLeg  -13.1788 16.3123 -12.6377
LeftLeg  26.9104 3.60695 2.36191
LeftFoot  -9.69647 -0.102602 11.1704
LeftToes  1.81573e-012 2.54609e-010 -3.45981e-011
611
root  -44.2942 38.5501 12.1096 -2.58902 41.0804 5.30214
RightUpLeg  2.24478 -5.39178 -15.1551
RightLeg  60.4665 2.82603 4.87728
RightFoot  3.41556 -1.14734 9.02827
RightToes  5.82063e-011 0 -3.6325e-017
Spine  11.2291 0.520426 -0.412491
Spine1  7.37856 1.20984 -7.43477
HEad  -21.9826 7.54986 -9.49075
LeftShoulder1  0.646001 1.67955 -29.2915
LeftArm  -0.901126 7.34785 -43.9536
LeftForeArm  25.0518 -11.4274 -8.14572
LeftHand  -0.0404415 0.965448 0.93949
RightShoulder  -0.266755 -4.3091 25.7694
RightArm  14.3692 -0.458736 49.7997
RightForeArm  20.7879 6.54643 7.67863
RightHand  -0.120305 1.64925 -2.12232
LeftUpLeg  -10.2863 12.1239 -12.5958
LeftLeg  25.1458 3.5777 2.12954
LeftFoot  -10.4025 -0.024884 10.6896
LeftToes  1.81573e-012 2.54609e-010 -3.45981e-011
612
root  -43.425 38.8711 12.7458 -3.09123 45.3465 4.21919
RightUpLeg  -2.48736 -3.90358 -13.0373
RightLeg  62.7769 -0.245461 -1.01867
RightFoot  2.95748 -0.726703 5.92111
RightToes  5.82063e-011 0 -3.6325e-017
Spine  10.9825 -0.214219 -0.286909
Spine1  7.74152 0.248452 -6.32528
HEad  -21.4219 6.58653 -8.94067
LeftShoulder1  0.608796 1.7795 -29.2096
LeftArm  5.25697 6.54007 -45.0018
LeftForeArm  21.8606 -15.4607 -7.20223
LeftHand  -0.0423566 1.1581 1.01018
RightShoulder  -0.211579 -4.14896 25.2193
RightArm  13.5253 -1.42793 49.7755
RightForeArm  15.0584 8.50012 7.16271
RightHand  -0.169476 2.4508 -2.71803
LeftUpLeg  -6.76947 8.17262 -11.8847
LeftLeg  22.4017 3.39591 1.37368
LeftFoot  -10.5986 -0.00475173 10.5779
LeftToes  1.81573e-012 2.54609e-010 -3.45981e-011
613
root  -42.6401 39.1369 13.3682 -3.84674 48.7568 2.83592
RightUpLeg  -7.46889 -1.12089 -10.7821
RightLeg  62.6694 -1.61936 -3.94859
RightFoot  1.51208 -0.36991 3.38585
RightToes  5.82063e-011 0 -3.6325e-017
Spine  11.4407 -0.517494 -0.571144
Spine1  7.14509 -0.399634 -4.84613
HEad  -20.9771 5.29367 -8.35336
LeftShoulder1  0.673867 1.57388 -28.7966
LeftArm  10.949 6.38881 -46.0328
LeftForeArm  17.4033 -19.4444 -5.45764
LeftHand  -0.0430259 0.876071 0.943445
RightShoulder  -0.238138 -4.22297 25.6626
RightArm  15.5222 -1.92105 48.6822
RightForeArm  9.40759 11.6465 6.90646
RightHand  -0.167289 2.87484 -2.56818
LeftUpLeg  -3.72891 5.46643 -10.8355
LeftLeg  19.9726 2.73726 0.473215
LeftFoot  -10.7978 0.0130509 10.9366
LeftToes  1.81573e-012 2.54609e-010 -3.45981e-011
614
root  -41.8172 39.3184 14.0105 -4.99928 52.5376 1.53174
RightUpLeg  -11.1721 1.33676 -9.29465
RightLeg  59.6302 -1.58246 -3.41683
RightFoot  0.385449 -0.26419 2.59305
RightToes  5.82063e-011 0 -3.6325e-017
Spine  12.2966 -1.10253 -1.37804
Spine1  6.64916 -1.50474 -2.9274
HEad  -21.3733 4.86831 -8.16363
LeftShoulder1  0.619782 1.71892 -28.6063
LeftArm  13.3798 6.42768 -46.6479
LeftForeArm  14.9663 -22.9741 -4.32473
LeftHand  -0.101626 0.168685 2.28124
RightShoulder  -0.190528 -4.08488 25.0668
RightArm  18.3175 -2.24397 48.6681
RightForeArm  6.17141 15.1439 6.18861
RightHand  -0.194584 3.16627 -2.877
LeftUpLeg  -0.481208 4.31651 -9.87159
LeftLeg  18.0557 0.3416 -0.415496
LeftFoot  -11.3354 0.0677446 10.9746
LeftToes  1.81573e-012 2.54609e-010 -3.45981e-011
615
root  -40.9584 39.3971 14.666 -6.25298 56.189 0.540985
RightUpLeg  -13.8548 3.27178 -8.45063
RightLeg  54.3275 -1.29672 -2.35496
RightFoot  -0.579388 -0.30417 3.26035
RightToes  5.82063e-011 0 -3.6325e-017
Spine  13.3656 -1.62694 -2.22639
Spine1  6.19113 -2.46343 -1.27114
HEad  -21.9859 4.08652 -7.67112
LeftShoulder1  0.65197 1.62337 -28.5479
LeftArm  12.418 6.30917 -46.5966
LeftForeArm  16.0037 -25.8468 -4.66039
LeftHand  -0.0948605 0.13587 2.11376
RightShoulder  -0.166052 -4.01191 24.7816
RightArm  20.5692 -2.00893 48.5573
RightForeArm  5.24114 17.7666 5.47202
RightHand  -0.201297 3.08858 -2.98645
LeftUpLeg  2.83738 4.18668 -9.03015
LeftLeg  16.7152 -3.06991 -1.13501
LeftFoot  -12.1626 0.153757 11.1487
LeftToes  1.81573e-012 2.54609e-010 -3.45981e-011
616
root  -40.1004 39.4053 15.3228 -7.04631 59.6147 -0.143845
RightUpLeg  -16.0042 3.57614 -8.29177
RightLeg  47.0767 -1.16492 -1.63201
RightFoot  -2.5917 -0.45652 5.687
RightToes  5.82063e-011 0 -3.6325e-017
Spine  13.9471 -1.97656 -3.05737
Spine1  6.05665 -3.1354 0.131702
HEad  -22.5705 3.05863 -7.22596
LeftShoulder1  0.733657 1.38213 -28.4699
LeftArm  11.5205 5.4501 -46.6328
LeftForeArm  17.0699 -27.3825 -4.97896
LeftHand  -0.0844785 -0.38594 1.7529
RightShoulder  -0.228332 -4.21324 24.7335
RightArm  20.8961 -1.39221 48.7653
RightForeArm  5.56274 19.3815 4.99366
RightHand  -0.228284 3.84718 -3.1331
LeftUpLeg  5.52503 4.64315 -8.11581
LeftLeg  16.0023 -6.78102 -1.87988
LeftFoot  -13.165 0.265024 11.6102
LeftToes  1.81573e-012 2.54609e-010 -3.45981e-011
617
root  -39.1741 39.3628 15.9728 -7.65349 62.6986 -0.865799
RightUpLeg  -17.3833 3.35283 -8.03302
RightLeg  37.8801 -1.65852 -1.65122
RightFoot  -2.88496 -0.487364 6.31487
RightToes  5.82063e-011 0 -3.6325e-017
Spine  14.1126 -2.412 -2.91458
Spine1  6.04421 -3.48713 0.38204
HEad  -22.9614 1.87786 -6.71571
LeftShoulder1  0.767116 1.25142 -27.9251
LeftArm  11.2872 4.32109 -47.007
LeftForeArm  17.4944 -28.0159 -5.10017
LeftHand  -0.114742 -0.259823 2.4075
RightShoulder  -0.194705 -4.10452 24.7469
RightArm  20.5917 -1.20004 48.868
RightForeArm  4.61942 20.4638 4.79265
RightHand  -0.243106 4.29361 -3.19213
LeftUpLeg  7.8869 5.14327 -7.07931
LeftLeg  15.5817 -10.3001 -2.52641
LeftFoot  -14.3464 0.403733 12.0442
LeftToes  1.81573e-012 2.54609e-010 -3.45981e-011
618
root  -38.1876 39.2663 16.5948 -6.88977 64.2326 -0.270172
RightUpLeg  -18.3412 2.54673 -7.93496
RightLeg  27.1367 -1.67906 -1.14798
RightFoot  -2.63631 -0.498931 6.30162
RightToes  5.82063e-011 0 -3.6325e-017
Spine  13.946 -2.27034 -2.80042
Spine1  5.99306 -3.13657 0.468444
HEad  -22.7482 1.45327 -6.92443
LeftShoulder1  0.744003 1.33493 -28.187
LeftArm  11.6142 2.8991 -46.7392
LeftForeArm  17.0607 -27.4834 -5.00243
LeftHand  -0.121385 -0.586372 2.44098
RightShoulder  -0.149547 -3.96353 24.4455
RightArm  20.3529 -0.717097 49.2604
RightForeArm  4.48252 20.3968 4.81118
RightHand  -0.259061 4.19314 -3.41139
LeftUpLeg  10.1773 5.36633 -6.81784
LeftLeg  14.6426 -12.0858 -2.71884
LeftFoot  -15.3695 0.530446 12.3943
LeftToes  1.81573e-012 2.54609e-010 -3.45981e-011
619
root  -37.0864 39.133 17.249 -6.95613 65.5186 0.0824738
RightUpLeg  -17.3503 -1.30884 -6.63563
RightLeg  15.3107 -0.648958 -0.45884
RightFoot  -2.97415 -0.58543 7.77385
RightToes  5.82063e-011 0 -3.6325e-017
Spine  14.2476 -2.28513 -1.94626
Spine1  5.91163 -2.78505 -0.118336
HEad  -22.6495 0.710105 -6.64824
LeftShoulder1  0.713997 1.45682 -28.7614
LeftArm  11.6055 2.40383 -45.759
LeftForeArm  16.5261 -26.9361 -4.90835
LeftHand  -0.120957 -0.204121 2.54745
RightShoulder  -0.0826096 -3.74724 24.3144
RightArm  19.8203 -0.320055 49.8782
RightForeArm  5.23777 19.4143 4.95422
RightHand  -0.235792 4.02475 -3.18134
LeftUpLeg  13.4668 6.06905 -5.97222
LeftLeg  13.5184 -14.153 -3.08024
LeftFoot  -16.3581 0.648813 12.5162
LeftToes  1.81573e-012 2.54609e-010 -3.45981e-011
